<svg width="349" height="271" viewBox="0 0 349 271" fill="none" xmlns="http://www.w3.org/2000/svg">
<mask id="mask0_14_212" style="mask-type:alpha" maskUnits="userSpaceOnUse" x="-31" y="0" width="380" height="271">
<path d="M-31 0C-31 0 245.308 0.000734973 349 0C307.944 159.161 124.733 284.309 -31 269V0Z" fill="#064BB5"/>
</mask>
<g mask="url(#mask0_14_212)">
<path fill-rule="evenodd" clip-rule="evenodd" d="M8.5 270V229.5H-31V228.5H8.5V191.5H-31V190.5H8.5V153.5H-31V152.5H8.5V115.5H-31V114.5H8.5V77.5H-31V76.5H8.5V39.5H-31V38.5H8.5V0H9.5V38.5L46.5 38.5V0H47.5V38.5H84.5V0H85.5V38.5L122.5 38.5V0H123.5V38.5H160.5V0H161.5V38.5H198.5V0H199.5V38.5L236.5 38.5V0H237.5V38.5H274.5V0H275.5V38.5L312.5 38.5V0H313.5V38.5H349V39.5H313.5V76.5H349V77.5H313.5V114.5H349V115.5H313.5V152.5H349V153.5H313.5V190.5H349V191.5H313.5V228.5H349V229.5H313.5V270H312.5V229.5H275.5V270H274.5V229.5H237.5V270H236.5V229.5H199.5V270H198.5V229.5H161.5V270H160.5V229.5L123.5 229.5V270H122.5V229.5H85.5V270H84.5V229.5H47.5V270H46.5V229.5H9.5V270H8.5ZM312.5 114.5V77.5H275.5V114.5H312.5ZM275.5 115.5H312.5V152.5H275.5V115.5ZM274.5 114.5V77.5L237.5 77.5V114.5L274.5 114.5ZM237.5 115.5L274.5 115.5V152.5H237.5V115.5ZM236.5 114.5V77.5H199.5V114.5H236.5ZM199.5 115.5H236.5V152.5H199.5V115.5ZM198.5 114.5V77.5H161.5V114.5H198.5ZM161.5 115.5H198.5V152.5H161.5V115.5ZM160.5 114.5V77.5H123.5V114.5H160.5ZM123.5 115.5H160.5V152.5L123.5 152.5V115.5ZM122.5 114.5V77.5H85.5V114.5H122.5ZM85.5 115.5H122.5V152.5H85.5V115.5ZM84.5 114.5V77.5L47.5 77.5V114.5L84.5 114.5ZM47.5 115.5L84.5 115.5V152.5H47.5V115.5ZM46.5 114.5V77.5H9.5V114.5H46.5ZM9.5 115.5H46.5V152.5H9.5V115.5ZM46.5 228.5H9.5V191.5H46.5V228.5ZM84.5 228.5H47.5V191.5H84.5V228.5ZM122.5 228.5H85.5V191.5H122.5V228.5ZM160.5 228.5L123.5 228.5V191.5L160.5 191.5V228.5ZM198.5 228.5H161.5V191.5H198.5V228.5ZM236.5 228.5H199.5V191.5H236.5V228.5ZM274.5 228.5H237.5V191.5H274.5V228.5ZM312.5 228.5H275.5V191.5H312.5V228.5ZM312.5 39.5L275.5 39.5V76.5H312.5V39.5ZM274.5 39.5H237.5V76.5L274.5 76.5V39.5ZM236.5 39.5L199.5 39.5V76.5H236.5V39.5ZM198.5 39.5H161.5V76.5H198.5V39.5ZM160.5 39.5H123.5V76.5H160.5V39.5ZM122.5 39.5L85.5 39.5V76.5H122.5V39.5ZM84.5 39.5H47.5V76.5L84.5 76.5V39.5ZM46.5 39.5L9.5 39.5V76.5H46.5V39.5ZM9.5 190.5V153.5H46.5V190.5H9.5ZM47.5 190.5V153.5H84.5V190.5H47.5ZM85.5 190.5V153.5H122.5V190.5H85.5ZM123.5 190.5V153.5L160.5 153.5V190.5L123.5 190.5ZM161.5 190.5V153.5H198.5V190.5H161.5ZM199.5 190.5V153.5H236.5V190.5H199.5ZM237.5 190.5V153.5H274.5V190.5H237.5ZM275.5 190.5V153.5H312.5V190.5H275.5Z" fill="#111010"/>
</g>
</svg>
